<svg xmlns="http://www.w3.org/2000/svg" width="220" height="44.375" shape-rendering="geometricPrecision" viewBox="0 0 220 44.375"><path fill="#F84440" d="M186.911 4.123h32.22v32.219h-32.22z"/><g fill="#F84440"><path d="M31.381 33.83h-7.806l-2.263-7.074h-11.31l-2.24 7.074H0L11.577 2.028h8.493L31.381 33.83zM19.672 21.256l-4.049-13.55-4.091 13.55h8.14zM51.873 33.01c-1.582.916-3.867 1.375-6.854 1.375-3.488 0-6.313-1.057-8.471-3.171-2.159-2.114-3.238-4.843-3.238-8.184 0-3.859 1.156-6.901 3.471-9.126 2.313-2.226 5.407-3.338 9.281-3.338 2.676 0 4.613.354 5.811 1.064v5.943c-1.464-1.094-3.098-1.641-4.901-1.641-2.011 0-3.604.587-4.778 1.763-1.176 1.176-1.764 2.798-1.764 4.868 0 2.011.562 3.589 1.686 4.735 1.123 1.146 2.668 1.718 4.635 1.718 1.745 0 3.452-.547 5.123-1.641v5.635zm21.801 0c-1.582.916-3.867 1.375-6.854 1.375-3.489 0-6.313-1.057-8.472-3.171-2.158-2.114-3.237-4.843-3.237-8.184 0-3.859 1.156-6.901 3.471-9.126 2.313-2.226 5.407-3.338 9.281-3.338 2.676 0 4.613.354 5.811 1.064v5.943c-1.465-1.094-3.098-1.641-4.901-1.641-2.011 0-3.604.587-4.779 1.763-1.176 1.176-1.763 2.798-1.763 4.868 0 2.011.562 3.589 1.685 4.735 1.124 1.146 2.669 1.718 4.636 1.718 1.744 0 3.451-.547 5.123-1.641v5.635zm24.994-8.538H83.854c.236 3.298 2.313 4.945 6.231 4.945 2.499 0 4.694-.591 6.587-1.774V32.7c-2.101 1.123-4.828 1.685-8.184 1.685-3.667 0-6.514-1.016-8.538-3.049-2.026-2.033-3.039-4.868-3.039-8.505 0-3.771 1.094-6.757 3.282-8.96s4.88-3.305 8.073-3.305c3.312 0 5.873.983 7.684 2.949 1.812 1.967 2.718 4.636 2.718 8.007v2.95zm-6.498-4.303c0-3.252-1.316-4.878-3.947-4.878-1.125 0-2.097.465-2.917 1.396-.821.932-1.32 2.092-1.497 3.481h8.361zm17.764 11.022h-.089v13.085h-7.008V11.121h7.008v3.415h.089c1.73-2.646 4.162-3.97 7.297-3.97 2.941 0 5.215 1.009 6.819 3.027 1.604 2.018 2.406 4.765 2.406 8.239 0 3.784-.935 6.823-2.806 9.114-1.87 2.292-4.357 3.438-7.463 3.438-2.735.001-4.819-1.064-6.253-3.193zm-.2-9.314v1.818c0 1.567.414 2.847 1.242 3.837s1.914 1.485 3.26 1.485c1.597 0 2.835-.617 3.715-1.852.879-1.234 1.319-2.982 1.319-5.245 0-3.991-1.553-5.987-4.657-5.987-1.434 0-2.605.543-3.516 1.63-.908 1.087-1.363 2.525-1.363 4.314zm34.995 11.687c-1.034.547-2.595.82-4.679.82-4.938 0-7.407-2.564-7.407-7.695v-10.4h-3.683v-5.168h3.683V6.22l6.985-1.996v6.897h5.101v5.168h-5.101v9.181c0 2.366.939 3.548 2.817 3.548.738 0 1.5-.214 2.283-.643v5.189zm7.497-26.036c-1.183 0-2.151-.351-2.904-1.054-.755-.702-1.132-1.563-1.132-2.584 0-1.049.377-1.907 1.132-2.572.753-.665 1.722-.998 2.904-.998 1.198 0 2.17.333 2.917.998.746.665 1.12 1.523 1.12 2.572 0 1.064-.374 1.938-1.12 2.617-.747.681-1.719 1.021-2.917 1.021zm3.46 26.302h-7.008V11.121h7.008V33.83zm23.108-.82c-1.582.916-3.866 1.375-6.853 1.375-3.489 0-6.313-1.057-8.472-3.171s-3.238-4.843-3.238-8.184c0-3.859 1.157-6.901 3.471-9.126 2.313-2.226 5.408-3.338 9.281-3.338 2.676 0 4.613.354 5.811 1.064v5.943c-1.464-1.094-3.098-1.641-4.901-1.641-2.01 0-3.604.587-4.778 1.763-1.176 1.176-1.764 2.798-1.764 4.868 0 2.011.562 3.589 1.686 4.735 1.123 1.146 2.669 1.718 4.635 1.718 1.745 0 3.452-.547 5.123-1.641v5.635z"/><path d="M31.381 33.83h-7.806l-2.263-7.074h-11.31l-2.24 7.074H0L11.577 2.028h8.493L31.381 33.83zM19.672 21.256l-4.049-13.55-4.091 13.55h8.14zM51.873 33.01c-1.582.916-3.867 1.375-6.854 1.375-3.488 0-6.313-1.057-8.471-3.171-2.159-2.114-3.238-4.843-3.238-8.184 0-3.859 1.156-6.901 3.471-9.126 2.313-2.226 5.407-3.338 9.281-3.338 2.676 0 4.613.354 5.811 1.064v5.943c-1.464-1.094-3.098-1.641-4.901-1.641-2.011 0-3.604.587-4.778 1.763-1.176 1.176-1.764 2.798-1.764 4.868 0 2.011.562 3.589 1.686 4.735 1.123 1.146 2.668 1.718 4.635 1.718 1.745 0 3.452-.547 5.123-1.641v5.635zm21.801 0c-1.582.916-3.867 1.375-6.854 1.375-3.489 0-6.313-1.057-8.472-3.171-2.158-2.114-3.237-4.843-3.237-8.184 0-3.859 1.156-6.901 3.471-9.126 2.313-2.226 5.407-3.338 9.281-3.338 2.676 0 4.613.354 5.811 1.064v5.943c-1.465-1.094-3.098-1.641-4.901-1.641-2.011 0-3.604.587-4.779 1.763-1.176 1.176-1.763 2.798-1.763 4.868 0 2.011.562 3.589 1.685 4.735 1.124 1.146 2.669 1.718 4.636 1.718 1.744 0 3.451-.547 5.123-1.641v5.635zm24.994-8.538H83.854c.236 3.298 2.313 4.945 6.231 4.945 2.499 0 4.694-.591 6.587-1.774V32.7c-2.101 1.123-4.828 1.685-8.184 1.685-3.667 0-6.514-1.016-8.538-3.049-2.026-2.033-3.039-4.868-3.039-8.505 0-3.771 1.094-6.757 3.282-8.96s4.88-3.305 8.073-3.305c3.312 0 5.873.983 7.684 2.949 1.812 1.967 2.718 4.636 2.718 8.007v2.95zm-6.498-4.303c0-3.252-1.316-4.878-3.947-4.878-1.125 0-2.097.465-2.917 1.396-.821.932-1.32 2.092-1.497 3.481h8.361zm17.764 11.022h-.089v13.085h-7.008V11.121h7.008v3.415h.089c1.73-2.646 4.162-3.97 7.297-3.97 2.941 0 5.215 1.009 6.819 3.027 1.604 2.018 2.406 4.765 2.406 8.239 0 3.784-.935 6.823-2.806 9.114-1.87 2.292-4.357 3.438-7.463 3.438-2.735.001-4.819-1.064-6.253-3.193zm-.2-9.314v1.818c0 1.567.414 2.847 1.242 3.837s1.914 1.485 3.26 1.485c1.597 0 2.835-.617 3.715-1.852.879-1.234 1.319-2.982 1.319-5.245 0-3.991-1.553-5.987-4.657-5.987-1.434 0-2.605.543-3.516 1.63-.908 1.087-1.363 2.525-1.363 4.314zm34.995 11.687c-1.034.547-2.595.82-4.679.82-4.938 0-7.407-2.564-7.407-7.695v-10.4h-3.683v-5.168h3.683V6.22l6.985-1.996v6.897h5.101v5.168h-5.101v9.181c0 2.366.939 3.548 2.817 3.548.738 0 1.5-.214 2.283-.643v5.189zm7.497-26.036c-1.183 0-2.151-.351-2.904-1.054-.755-.702-1.132-1.563-1.132-2.584 0-1.049.377-1.907 1.132-2.572.753-.665 1.722-.998 2.904-.998 1.198 0 2.17.333 2.917.998.746.665 1.12 1.523 1.12 2.572 0 1.064-.374 1.938-1.12 2.617-.747.681-1.719 1.021-2.917 1.021zm3.46 26.302h-7.008V11.121h7.008V33.83zm23.108-.82c-1.582.916-3.866 1.375-6.853 1.375-3.489 0-6.313-1.057-8.472-3.171s-3.238-4.843-3.238-8.184c0-3.859 1.157-6.901 3.471-9.126 2.313-2.226 5.408-3.338 9.281-3.338 2.676 0 4.613.354 5.811 1.064v5.943c-1.464-1.094-3.098-1.641-4.901-1.641-2.01 0-3.604.587-4.778 1.763-1.176 1.176-1.764 2.798-1.764 4.868 0 2.011.562 3.589 1.686 4.735 1.123 1.146 2.669 1.718 4.635 1.718 1.745 0 3.452-.547 5.123-1.641v5.635z"/></g><path fill="#FFF" d="M212.493 16.199l-3.465-3.386-11.055 11.044-2.579-2.592-3.434 3.414 5.994 6.034z"/></svg>