<?xml version="1.0" encoding="utf-8"?>
<!-- Generator: Adobe Illustrator 15.0.2, SVG Export Plug-In . SVG Version: 6.00 Build 0)  -->
<!DOCTYPE svg PUBLIC "-//W3C//DTD SVG 1.1//EN" "http://www.w3.org/Graphics/SVG/1.1/DTD/svg11.dtd">
<svg version="1.1" id="Layer_1" xmlns="http://www.w3.org/2000/svg" xmlns:xlink="http://www.w3.org/1999/xlink" x="0px" y="0px"
	 width="220px" height="44.375px"  shape-rendering="geometricPrecision" viewBox="0 0 220 44.375" enable-background="new 0 0 220 44.375" xml:space="preserve">
<g>
	<rect x="186.911" y="4.123" fill="#F84440" width="32.22" height="32.219"/>
	<g>
		<g>
			<path fill="#F84440" d="M31.381,33.83h-7.806l-2.263-7.074H10.002l-2.24,7.074H0L11.577,2.028h8.493L31.381,33.83z
				 M19.672,21.256l-4.049-13.55l-4.091,13.55H19.672z"/>
			<path fill="#F84440" d="M51.873,33.01c-1.582,0.916-3.867,1.375-6.854,1.375c-3.488,0-6.313-1.057-8.471-3.171
				c-2.159-2.114-3.238-4.843-3.238-8.184c0-3.859,1.156-6.901,3.471-9.126c2.313-2.226,5.407-3.338,9.281-3.338
				c2.676,0,4.613,0.354,5.811,1.064v5.943c-1.464-1.094-3.098-1.641-4.901-1.641c-2.011,0-3.604,0.587-4.778,1.763
				c-1.176,1.176-1.764,2.798-1.764,4.868c0,2.011,0.562,3.589,1.686,4.735c1.123,1.146,2.668,1.718,4.635,1.718
				c1.745,0,3.452-0.547,5.123-1.641V33.01z"/>
			<path fill="#F84440" d="M73.674,33.01c-1.582,0.916-3.867,1.375-6.854,1.375c-3.489,0-6.313-1.057-8.472-3.171
				c-2.158-2.114-3.237-4.843-3.237-8.184c0-3.859,1.156-6.901,3.471-9.126c2.313-2.226,5.407-3.338,9.281-3.338
				c2.676,0,4.613,0.354,5.811,1.064v5.943c-1.465-1.094-3.098-1.641-4.901-1.641c-2.011,0-3.604,0.587-4.779,1.763
				c-1.176,1.176-1.763,2.798-1.763,4.868c0,2.011,0.562,3.589,1.685,4.735c1.124,1.146,2.669,1.718,4.636,1.718
				c1.744,0,3.451-0.547,5.123-1.641V33.01z"/>
			<path fill="#F84440" d="M98.668,24.472H83.854c0.236,3.298,2.313,4.945,6.231,4.945c2.499,0,4.694-0.591,6.587-1.774V32.7
				c-2.101,1.123-4.828,1.685-8.184,1.685c-3.667,0-6.514-1.016-8.538-3.049c-2.026-2.033-3.039-4.868-3.039-8.505
				c0-3.771,1.094-6.757,3.282-8.96s4.88-3.305,8.073-3.305c3.312,0,5.873,0.983,7.684,2.949c1.812,1.967,2.718,4.636,2.718,8.007
				V24.472z M92.17,20.169c0-3.252-1.316-4.878-3.947-4.878c-1.125,0-2.097,0.465-2.917,1.396c-0.821,0.932-1.32,2.092-1.497,3.481
				H92.17z"/>
			<path fill="#F84440" d="M109.934,31.191h-0.089v13.085h-7.008V11.121h7.008v3.415h0.089c1.73-2.646,4.162-3.97,7.297-3.97
				c2.941,0,5.215,1.009,6.819,3.027c1.604,2.018,2.406,4.765,2.406,8.239c0,3.784-0.935,6.823-2.806,9.114
				c-1.87,2.292-4.357,3.438-7.463,3.438C113.452,34.385,111.368,33.32,109.934,31.191z M109.734,21.877v1.818
				c0,1.567,0.414,2.847,1.242,3.837s1.914,1.485,3.26,1.485c1.597,0,2.835-0.617,3.715-1.852c0.879-1.234,1.319-2.982,1.319-5.245
				c0-3.991-1.553-5.987-4.657-5.987c-1.434,0-2.605,0.543-3.516,1.63C110.189,18.65,109.734,20.088,109.734,21.877z"/>
			<path fill="#F84440" d="M144.729,33.564c-1.034,0.547-2.595,0.82-4.679,0.82c-4.938,0-7.407-2.564-7.407-7.695v-10.4h-3.683
				v-5.168h3.683V6.22l6.985-1.996v6.897h5.101v5.168h-5.101v9.181c0,2.366,0.939,3.548,2.817,3.548c0.738,0,1.5-0.214,2.283-0.643
				V33.564z"/>
			<path fill="#F84440" d="M152.226,7.528c-1.183,0-2.151-0.351-2.904-1.054c-0.755-0.702-1.132-1.563-1.132-2.584
				c0-1.049,0.377-1.907,1.132-2.572c0.753-0.665,1.722-0.998,2.904-0.998c1.198,0,2.17,0.333,2.917,0.998
				c0.746,0.665,1.12,1.523,1.12,2.572c0,1.064-0.374,1.938-1.12,2.617C154.396,7.188,153.424,7.528,152.226,7.528z M155.686,33.83
				h-7.008V11.121h7.008V33.83z"/>
			<path fill="#F84440" d="M178.794,33.01c-1.582,0.916-3.866,1.375-6.853,1.375c-3.489,0-6.313-1.057-8.472-3.171
				c-2.159-2.114-3.238-4.843-3.238-8.184c0-3.859,1.157-6.901,3.471-9.126c2.313-2.226,5.408-3.338,9.281-3.338
				c2.676,0,4.613,0.354,5.811,1.064v5.943c-1.464-1.094-3.098-1.641-4.901-1.641c-2.01,0-3.604,0.587-4.778,1.763
				c-1.176,1.176-1.764,2.798-1.764,4.868c0,2.011,0.562,3.589,1.686,4.735c1.123,1.146,2.669,1.718,4.635,1.718
				c1.745,0,3.452-0.547,5.123-1.641V33.01z"/>
		</g>
		<g>
			<path fill="#F84440" d="M31.381,33.83h-7.806l-2.263-7.074H10.002l-2.24,7.074H0L11.577,2.028h8.493L31.381,33.83z
				 M19.672,21.256l-4.049-13.55l-4.091,13.55H19.672z"/>
			<path fill="#F84440" d="M51.873,33.01c-1.582,0.916-3.867,1.375-6.854,1.375c-3.488,0-6.313-1.057-8.471-3.171
				c-2.159-2.114-3.238-4.843-3.238-8.184c0-3.859,1.156-6.901,3.471-9.126c2.313-2.226,5.407-3.338,9.281-3.338
				c2.676,0,4.613,0.354,5.811,1.064v5.943c-1.464-1.094-3.098-1.641-4.901-1.641c-2.011,0-3.604,0.587-4.778,1.763
				c-1.176,1.176-1.764,2.798-1.764,4.868c0,2.011,0.562,3.589,1.686,4.735c1.123,1.146,2.668,1.718,4.635,1.718
				c1.745,0,3.452-0.547,5.123-1.641V33.01z"/>
			<path fill="#F84440" d="M73.674,33.01c-1.582,0.916-3.867,1.375-6.854,1.375c-3.489,0-6.313-1.057-8.472-3.171
				c-2.158-2.114-3.237-4.843-3.237-8.184c0-3.859,1.156-6.901,3.471-9.126c2.313-2.226,5.407-3.338,9.281-3.338
				c2.676,0,4.613,0.354,5.811,1.064v5.943c-1.465-1.094-3.098-1.641-4.901-1.641c-2.011,0-3.604,0.587-4.779,1.763
				c-1.176,1.176-1.763,2.798-1.763,4.868c0,2.011,0.562,3.589,1.685,4.735c1.124,1.146,2.669,1.718,4.636,1.718
				c1.744,0,3.451-0.547,5.123-1.641V33.01z"/>
			<path fill="#F84440" d="M98.668,24.472H83.854c0.236,3.298,2.313,4.945,6.231,4.945c2.499,0,4.694-0.591,6.587-1.774V32.7
				c-2.101,1.123-4.828,1.685-8.184,1.685c-3.667,0-6.514-1.016-8.538-3.049c-2.026-2.033-3.039-4.868-3.039-8.505
				c0-3.771,1.094-6.757,3.282-8.96s4.88-3.305,8.073-3.305c3.312,0,5.873,0.983,7.684,2.949c1.812,1.967,2.718,4.636,2.718,8.007
				V24.472z M92.17,20.169c0-3.252-1.316-4.878-3.947-4.878c-1.125,0-2.097,0.465-2.917,1.396c-0.821,0.932-1.32,2.092-1.497,3.481
				H92.17z"/>
			<path fill="#F84440" d="M109.934,31.191h-0.089v13.085h-7.008V11.121h7.008v3.415h0.089c1.73-2.646,4.162-3.97,7.297-3.97
				c2.941,0,5.215,1.009,6.819,3.027c1.604,2.018,2.406,4.765,2.406,8.239c0,3.784-0.935,6.823-2.806,9.114
				c-1.87,2.292-4.357,3.438-7.463,3.438C113.452,34.385,111.368,33.32,109.934,31.191z M109.734,21.877v1.818
				c0,1.567,0.414,2.847,1.242,3.837s1.914,1.485,3.26,1.485c1.597,0,2.835-0.617,3.715-1.852c0.879-1.234,1.319-2.982,1.319-5.245
				c0-3.991-1.553-5.987-4.657-5.987c-1.434,0-2.605,0.543-3.516,1.63C110.189,18.65,109.734,20.088,109.734,21.877z"/>
			<path fill="#F84440" d="M144.729,33.564c-1.034,0.547-2.595,0.82-4.679,0.82c-4.938,0-7.407-2.564-7.407-7.695v-10.4h-3.683
				v-5.168h3.683V6.22l6.985-1.996v6.897h5.101v5.168h-5.101v9.181c0,2.366,0.939,3.548,2.817,3.548c0.738,0,1.5-0.214,2.283-0.643
				V33.564z"/>
			<path fill="#F84440" d="M152.226,7.528c-1.183,0-2.151-0.351-2.904-1.054c-0.755-0.702-1.132-1.563-1.132-2.584
				c0-1.049,0.377-1.907,1.132-2.572c0.753-0.665,1.722-0.998,2.904-0.998c1.198,0,2.17,0.333,2.917,0.998
				c0.746,0.665,1.12,1.523,1.12,2.572c0,1.064-0.374,1.938-1.12,2.617C154.396,7.188,153.424,7.528,152.226,7.528z M155.686,33.83
				h-7.008V11.121h7.008V33.83z"/>
			<path fill="#F84440" d="M178.794,33.01c-1.582,0.916-3.866,1.375-6.853,1.375c-3.489,0-6.313-1.057-8.472-3.171
				c-2.159-2.114-3.238-4.843-3.238-8.184c0-3.859,1.157-6.901,3.471-9.126c2.313-2.226,5.408-3.338,9.281-3.338
				c2.676,0,4.613,0.354,5.811,1.064v5.943c-1.464-1.094-3.098-1.641-4.901-1.641c-2.01,0-3.604,0.587-4.778,1.763
				c-1.176,1.176-1.764,2.798-1.764,4.868c0,2.011,0.562,3.589,1.686,4.735c1.123,1.146,2.669,1.718,4.635,1.718
				c1.745,0,3.452-0.547,5.123-1.641V33.01z"/>
		</g>
	</g>
	<polygon fill="#FFFFFF" points="212.493,16.199 209.028,12.813 197.973,23.857 195.394,21.265 191.96,24.679 197.954,30.713 	"/>
</g>
</svg>
